<svg xmlns="http://www.w3.org/2000/svg" xmlns:xlink="http://www.w3.org/1999/xlink" width="130" height="131" viewBox="0 0 130 131"><defs><path id="g929a" d="M508.1 974.78h8.86l.27-1.2h-9.4zm-.8-3.6h10.45l1.06-4.78h-12.55zm5.23-42.96a16.77 16.77 0 0 0-16.76 16.75 16.6 16.6 0 0 0 6.71 13.34c.1.07.18.16.26.25.8.65 2.71 2.47 3.14 5.44h5.45v-16.75a2.39 2.39 0 0 0-2.38-2.4 1.2 1.2 0 1 1-.01-2.4h.01c1.27 0 2.47.5 3.38 1.4.08.1.12.21.2.3.08-.09.12-.2.2-.29.9-.9 2.1-1.4 3.4-1.4.65 0 1.2.53 1.2 1.2 0 .65-.55 1.2-1.2 1.2a2.37 2.37 0 0 0-2.39 2.38V964h5.44a8.67 8.67 0 0 1 3.14-5.43c.07-.1.15-.19.25-.26a16.6 16.6 0 0 0 6.72-13.34c0-9.24-7.52-16.75-16.76-16.75zm64.52 22.24a64.83 64.83 0 1 1-129.66 0 64.83 64.83 0 0 1 129.66 0zm-68.17 27.9h7.3l.25-1.18h-7.81z"/><linearGradient id="g929b" x1="495.39" x2="529.05" y1="885.63" y2="1015.29" gradientUnits="userSpaceOnUse"><stop offset=".01" stop-color="#6dffc6"/><stop offset=".99" stop-color="#3fd2ce"/></linearGradient></defs><g><g transform="translate(-447 -885)"><use fill="url(#g929b)" xlink:href="#g929a"/></g></g></svg>